<svg width="264" height="32" viewBox="0 0 264 32" fill="none" xmlns="http://www.w3.org/2000/svg">
<path d="M16.4542 9.25022C16.2951 8.69719 16.0716 8.20856 15.7837 7.78431C15.4959 7.3525 15.1436 6.98886 14.7269 6.69341C14.3178 6.39037 13.8481 6.15931 13.3178 6.00022C12.7951 5.84113 12.2156 5.76159 11.5792 5.76159C10.3898 5.76159 9.34434 6.05704 8.44283 6.64795C7.54889 7.23886 6.85192 8.09871 6.35192 9.2275C5.85192 10.3487 5.60192 11.7199 5.60192 13.3411C5.60192 14.9623 5.84813 16.3411 6.34055 17.4775C6.83298 18.6139 7.52995 19.4813 8.43146 20.0798C9.33298 20.6707 10.3974 20.9661 11.6246 20.9661C12.7383 20.9661 13.689 20.7692 14.4769 20.3752C15.2724 19.9737 15.8784 19.4093 16.2951 18.682C16.7193 17.9548 16.9315 17.0949 16.9315 16.1025L17.9315 16.2502H11.9315V12.5457H21.6701V15.4775C21.6701 17.523 21.2383 19.2805 20.3746 20.7502C19.511 22.2123 18.3216 23.3411 16.8065 24.1366C15.2913 24.9245 13.5565 25.3184 11.6019 25.3184C9.4201 25.3184 7.50343 24.8373 5.85192 23.8752C4.2004 22.9055 2.91252 21.5305 1.98828 19.7502C1.07161 17.9623 0.613281 15.8411 0.613281 13.3866C0.613281 11.5002 0.886009 9.8184 1.43146 8.34113C1.98449 6.85628 2.75722 5.59871 3.74964 4.56841C4.74207 3.5381 5.89737 2.75401 7.21555 2.21613C8.53374 1.67825 9.96177 1.40931 11.4996 1.40931C12.8178 1.40931 14.0451 1.6025 15.1815 1.98886C16.3178 2.36765 17.3254 2.90553 18.2042 3.6025C19.0906 4.29946 19.814 5.12901 20.3746 6.09113C20.9353 7.04568 21.2951 8.09871 21.4542 9.25022H16.4542Z" fill="#ADB1BA"/>
<path d="M33.2298 25.3411C31.4343 25.3411 29.8888 24.9775 28.5934 24.2502C27.3055 23.5154 26.3131 22.4775 25.6161 21.1366C24.9192 19.7881 24.5707 18.1934 24.5707 16.3525C24.5707 14.557 24.9192 12.9813 25.6161 11.6252C26.3131 10.2692 27.2942 9.21234 28.5593 8.45477C29.832 7.69719 31.3245 7.31841 33.0366 7.31841C34.1881 7.31841 35.2601 7.50401 36.2525 7.87522C37.2525 8.23886 38.1237 8.7881 38.8661 9.52295C39.6161 10.2578 40.1995 11.182 40.6161 12.2957C41.0328 13.4017 41.2411 14.6972 41.2411 16.182V17.5116H26.5025V14.5116H36.6843C36.6843 13.8146 36.5328 13.1972 36.2298 12.6593C35.9267 12.1214 35.5063 11.701 34.9684 11.398C34.4381 11.0873 33.8207 10.932 33.1161 10.932C32.3813 10.932 31.7298 11.1025 31.1616 11.4434C30.601 11.7767 30.1616 12.2275 29.8434 12.7957C29.5252 13.3563 29.3623 13.9813 29.3548 14.6707V17.5229C29.3548 18.3866 29.5138 19.1328 29.832 19.7616C30.1578 20.3904 30.6161 20.8752 31.207 21.2161C31.7979 21.557 32.4987 21.7275 33.3093 21.7275C33.8472 21.7275 34.3396 21.6517 34.7866 21.5002C35.2335 21.3487 35.6161 21.1214 35.9343 20.8184C36.2525 20.5154 36.4949 20.1442 36.6616 19.7048L41.1389 20.0002C40.9116 21.076 40.4457 22.0154 39.7411 22.8184C39.0442 23.6139 38.1426 24.2351 37.0366 24.682C35.9381 25.1214 34.6692 25.3411 33.2298 25.3411Z" fill="#ADB1BA"/>
<path d="M52.2866 25.3411C50.5214 25.3411 48.9949 24.9661 47.707 24.2161C46.4267 23.4586 45.4381 22.4055 44.7411 21.057C44.0442 19.701 43.6957 18.129 43.6957 16.3411C43.6957 14.5381 44.0442 12.9623 44.7411 11.6139C45.4381 10.2578 46.4267 9.20477 47.707 8.45477C48.9949 7.69719 50.5214 7.31841 52.2866 7.31841C54.0517 7.31841 55.5745 7.69719 56.8548 8.45477C58.1426 9.20477 59.1351 10.2578 59.832 11.6139C60.529 12.9623 60.8775 14.5381 60.8775 16.3411C60.8775 18.129 60.529 19.701 59.832 21.057C59.1351 22.4055 58.1426 23.4586 56.8548 24.2161C55.5745 24.9661 54.0517 25.3411 52.2866 25.3411ZM52.3093 21.5911C53.1123 21.5911 53.7828 21.3639 54.3207 20.9093C54.8585 20.4472 55.2638 19.8184 55.5366 19.0229C55.8169 18.2275 55.957 17.3222 55.957 16.307C55.957 15.2919 55.8169 14.3866 55.5366 13.5911C55.2638 12.7957 54.8585 12.1669 54.3207 11.7048C53.7828 11.2426 53.1123 11.0116 52.3093 11.0116C51.4987 11.0116 50.8169 11.2426 50.2639 11.7048C49.7184 12.1669 49.3055 12.7957 49.0252 13.5911C48.7525 14.3866 48.6161 15.2919 48.6161 16.307C48.6161 17.3222 48.7525 18.2275 49.0252 19.0229C49.3055 19.8184 49.7184 20.4472 50.2639 20.9093C50.8169 21.3639 51.4987 21.5911 52.3093 21.5911Z" fill="#ADB1BA"/>
<path d="M79.7354 7.54568L73.6332 25.0002H68.1786L62.0764 7.54568H67.19L70.815 20.0343H70.9968L74.6104 7.54568H79.7354Z" fill="#ADB1BA"/>
<path d="M86.7212 25.3298C85.6076 25.3298 84.6152 25.1366 83.744 24.7502C82.8728 24.3563 82.1834 23.7767 81.6758 23.0116C81.1758 22.2389 80.9258 21.2767 80.9258 20.1252C80.9258 19.1555 81.1038 18.3411 81.4599 17.682C81.8159 17.023 82.3008 16.4926 82.9144 16.0911C83.5281 15.6896 84.225 15.3866 85.0053 15.182C85.7932 14.9775 86.619 14.8336 87.4826 14.7502C88.4977 14.6442 89.3159 14.5457 89.9371 14.4548C90.5584 14.3563 91.0091 14.2123 91.2894 14.023C91.5697 13.8336 91.7099 13.5533 91.7099 13.182V13.1139C91.7099 12.3942 91.4826 11.8373 91.0281 11.4434C90.5811 11.0495 89.9447 10.8525 89.119 10.8525C88.2478 10.8525 87.5546 11.0457 87.0394 11.432C86.5243 11.8108 86.1834 12.2881 86.0167 12.8639L81.5394 12.5002C81.7667 11.4396 82.2137 10.5229 82.8803 9.75022C83.547 8.96992 84.4068 8.37143 85.4599 7.95477C86.5205 7.53053 87.7478 7.31841 89.1417 7.31841C90.1114 7.31841 91.0394 7.43204 91.9258 7.65931C92.8197 7.88659 93.6114 8.23886 94.3008 8.71613C94.9978 9.1934 95.547 9.80704 95.9485 10.557C96.35 11.2995 96.5508 12.1896 96.5508 13.2275V25.0002H91.9599V22.5798H91.8235C91.5432 23.1252 91.1682 23.6063 90.6985 24.023C90.2288 24.432 89.6644 24.754 89.0053 24.9889C88.3462 25.2161 87.5849 25.3298 86.7212 25.3298ZM88.1076 21.9889C88.8197 21.9889 89.4485 21.8487 89.994 21.5684C90.5394 21.2805 90.9674 20.8942 91.2781 20.4093C91.5887 19.9245 91.744 19.3752 91.744 18.7616V16.9093C91.5924 17.0078 91.3841 17.0987 91.119 17.182C90.8614 17.2578 90.5697 17.3298 90.244 17.3979C89.9182 17.4586 89.5925 17.5154 89.2667 17.5684C88.9409 17.6139 88.6455 17.6555 88.3803 17.6934C87.8121 17.7767 87.3159 17.9093 86.8917 18.0911C86.4675 18.273 86.1379 18.5192 85.9031 18.8298C85.6682 19.1328 85.5508 19.5116 85.5508 19.9661C85.5508 20.6252 85.7894 21.129 86.2667 21.4775C86.7515 21.8184 87.3652 21.9889 88.1076 21.9889Z" fill="#ADB1BA"/>
<path d="M105.147 14.9093V25.0002H100.306V7.54568H104.92V10.6252H105.125C105.511 9.61007 106.159 8.80704 107.068 8.21613C107.977 7.61765 109.079 7.31841 110.375 7.31841C111.587 7.31841 112.644 7.58356 113.545 8.11386C114.447 8.64416 115.147 9.40174 115.647 10.3866C116.147 11.3639 116.397 12.5305 116.397 13.8866V25.0002H111.556V14.7502C111.564 13.682 111.291 12.8487 110.738 12.2502C110.185 11.6442 109.424 11.3411 108.454 11.3411C107.803 11.3411 107.227 11.4813 106.727 11.7616C106.234 12.0419 105.848 12.451 105.568 12.9889C105.295 13.5192 105.155 14.1593 105.147 14.9093Z" fill="#ADB1BA"/>
<path d="M125.19 25.3298C124.076 25.3298 123.084 25.1366 122.213 24.7502C121.342 24.3563 120.652 23.7767 120.145 23.0116C119.645 22.2389 119.395 21.2767 119.395 20.1252C119.395 19.1555 119.573 18.3411 119.929 17.682C120.285 17.023 120.77 16.4926 121.383 16.0911C121.997 15.6896 122.694 15.3866 123.474 15.182C124.262 14.9775 125.088 14.8336 125.951 14.7502C126.966 14.6442 127.785 14.5457 128.406 14.4548C129.027 14.3563 129.478 14.2123 129.758 14.023C130.038 13.8336 130.179 13.5533 130.179 13.182V13.1139C130.179 12.3942 129.951 11.8373 129.497 11.4434C129.05 11.0495 128.413 10.8525 127.588 10.8525C126.717 10.8525 126.023 11.0457 125.508 11.432C124.993 11.8108 124.652 12.2881 124.485 12.8639L120.008 12.5002C120.235 11.4396 120.682 10.5229 121.349 9.75022C122.016 8.96992 122.876 8.37143 123.929 7.95477C124.989 7.53053 126.217 7.31841 127.61 7.31841C128.58 7.31841 129.508 7.43204 130.395 7.65931C131.288 7.88659 132.08 8.23886 132.77 8.71613C133.467 9.1934 134.016 9.80704 134.417 10.557C134.819 11.2995 135.02 12.1896 135.02 13.2275V25.0002H130.429V22.5798H130.292C130.012 23.1252 129.637 23.6063 129.167 24.023C128.698 24.432 128.133 24.754 127.474 24.9889C126.815 25.2161 126.054 25.3298 125.19 25.3298ZM126.576 21.9889C127.288 21.9889 127.917 21.8487 128.463 21.5684C129.008 21.2805 129.436 20.8942 129.747 20.4093C130.057 19.9245 130.213 19.3752 130.213 18.7616V16.9093C130.061 17.0078 129.853 17.0987 129.588 17.182C129.33 17.2578 129.038 17.3298 128.713 17.3979C128.387 17.4586 128.061 17.5154 127.735 17.5684C127.41 17.6139 127.114 17.6555 126.849 17.6934C126.281 17.7767 125.785 17.9093 125.36 18.0911C124.936 18.273 124.607 18.5192 124.372 18.8298C124.137 19.1328 124.02 19.5116 124.02 19.9661C124.02 20.6252 124.258 21.129 124.735 21.4775C125.22 21.8184 125.834 21.9889 126.576 21.9889Z" fill="#ADB1BA"/>
<path d="M150.477 1.7275L156.102 19.4093H156.318L161.954 1.7275H167.409L159.386 25.0002H153.045L145.011 1.7275H150.477Z" fill="#141414"/>
<path d="M170.119 25.0002V7.54568H174.96V25.0002H170.119ZM172.551 5.29568C171.831 5.29568 171.214 5.05704 170.699 4.57977C170.191 4.09492 169.937 3.51537 169.937 2.84113C169.937 2.17446 170.191 1.6025 170.699 1.12522C171.214 0.640374 171.831 0.397949 172.551 0.397949C173.27 0.397949 173.884 0.640374 174.392 1.12522C174.907 1.6025 175.164 2.17446 175.164 2.84113C175.164 3.51537 174.907 4.09492 174.392 4.57977C173.884 5.05704 173.27 5.29568 172.551 5.29568Z" fill="#141414"/>
<path d="M178.838 25.0002V7.54568H183.531V10.5911H183.713C184.031 9.5078 184.565 8.68962 185.315 8.13659C186.065 7.57598 186.929 7.29568 187.906 7.29568C188.148 7.29568 188.41 7.31083 188.69 7.34113C188.97 7.37144 189.216 7.4131 189.429 7.46613V11.7616C189.201 11.6934 188.887 11.6328 188.485 11.5798C188.084 11.5267 187.716 11.5002 187.383 11.5002C186.671 11.5002 186.035 11.6555 185.474 11.9661C184.921 12.2692 184.482 12.6934 184.156 13.2389C183.838 13.7843 183.679 14.4131 183.679 15.1252V25.0002H178.838Z" fill="#141414"/>
<path d="M198.983 31.9093C197.414 31.9093 196.07 31.6934 194.949 31.2616C193.835 30.8373 192.949 30.2578 192.289 29.523C191.63 28.7881 191.202 27.9623 191.005 27.0457L195.483 26.4434C195.619 26.7919 195.835 27.1176 196.13 27.4207C196.426 27.7237 196.816 27.9661 197.301 28.148C197.793 28.3373 198.392 28.432 199.096 28.432C200.149 28.432 201.017 28.1745 201.699 27.6593C202.388 27.1517 202.733 26.2995 202.733 25.1025V21.9093H202.528C202.316 22.3942 201.998 22.8525 201.574 23.2843C201.149 23.7161 200.604 24.0684 199.937 24.3411C199.27 24.6139 198.475 24.7502 197.551 24.7502C196.24 24.7502 195.047 24.4472 193.971 23.8411C192.903 23.2275 192.051 22.2919 191.414 21.0343C190.786 19.7692 190.471 18.1707 190.471 16.2389C190.471 14.2616 190.793 12.6101 191.437 11.2843C192.081 9.95856 192.937 8.96613 194.005 8.30704C195.081 7.64795 196.259 7.31841 197.539 7.31841C198.517 7.31841 199.335 7.48507 199.994 7.81841C200.653 8.14416 201.183 8.55325 201.585 9.04568C201.994 9.53053 202.308 10.0078 202.528 10.4775H202.71V7.54568H207.517V25.1707C207.517 26.6555 207.153 27.898 206.426 28.898C205.699 29.898 204.691 30.648 203.403 31.148C202.123 31.6555 200.649 31.9093 198.983 31.9093ZM199.085 21.1139C199.865 21.1139 200.524 20.9207 201.062 20.5343C201.608 20.1404 202.024 19.5798 202.312 18.8525C202.608 18.1176 202.755 17.2389 202.755 16.2161C202.755 15.1934 202.611 14.307 202.324 13.557C202.036 12.7995 201.619 12.2123 201.074 11.7957C200.528 11.379 199.865 11.1707 199.085 11.1707C198.289 11.1707 197.619 11.3866 197.074 11.8184C196.528 12.2426 196.115 12.8336 195.835 13.5911C195.555 14.3487 195.414 15.2237 195.414 16.2161C195.414 17.2237 195.555 18.0949 195.835 18.8298C196.123 19.557 196.536 20.1214 197.074 20.5229C197.619 20.9169 198.289 21.1139 199.085 21.1139Z" fill="#141414"/>
<path d="M211.369 25.0002V7.54568H216.21V25.0002H211.369ZM213.801 5.29568C213.081 5.29568 212.464 5.05704 211.949 4.57977C211.441 4.09492 211.187 3.51537 211.187 2.84113C211.187 2.17446 211.441 1.6025 211.949 1.12522C212.464 0.640374 213.081 0.397949 213.801 0.397949C214.52 0.397949 215.134 0.640374 215.642 1.12522C216.157 1.6025 216.414 2.17446 216.414 2.84113C216.414 3.51537 216.157 4.09492 215.642 4.57977C215.134 5.05704 214.52 5.29568 213.801 5.29568Z" fill="#141414"/>
<path d="M224.929 14.9093V25.0002H220.088V7.54568H224.701V10.6252H224.906C225.292 9.61007 225.94 8.80704 226.849 8.21613C227.758 7.61765 228.86 7.31841 230.156 7.31841C231.368 7.31841 232.425 7.58356 233.326 8.11386C234.228 8.64416 234.929 9.40174 235.429 10.3866C235.929 11.3639 236.179 12.5305 236.179 13.8866V25.0002H231.338V14.7502C231.345 13.682 231.073 12.8487 230.52 12.2502C229.967 11.6442 229.205 11.3411 228.235 11.3411C227.584 11.3411 227.008 11.4813 226.508 11.7616C226.016 12.0419 225.629 12.451 225.349 12.9889C225.076 13.5192 224.936 14.1593 224.929 14.9093Z" fill="#141414"/>
<path d="M239.994 25.0002V7.54568H244.835V25.0002H239.994ZM242.426 5.29568C241.706 5.29568 241.089 5.05704 240.574 4.57977C240.066 4.09492 239.812 3.51537 239.812 2.84113C239.812 2.17446 240.066 1.6025 240.574 1.12522C241.089 0.640374 241.706 0.397949 242.426 0.397949C243.145 0.397949 243.759 0.640374 244.267 1.12522C244.782 1.6025 245.039 2.17446 245.039 2.84113C245.039 3.51537 244.782 4.09492 244.267 4.57977C243.759 5.05704 243.145 5.29568 242.426 5.29568Z" fill="#141414"/>
<path d="M253.69 25.3298C252.576 25.3298 251.584 25.1366 250.713 24.7502C249.841 24.3563 249.152 23.7767 248.645 23.0116C248.145 22.2389 247.895 21.2767 247.895 20.1252C247.895 19.1555 248.073 18.3411 248.429 17.682C248.785 17.023 249.27 16.4926 249.883 16.0911C250.497 15.6896 251.194 15.3866 251.974 15.182C252.762 14.9775 253.588 14.8336 254.451 14.7502C255.467 14.6442 256.285 14.5457 256.906 14.4548C257.527 14.3563 257.978 14.2123 258.258 14.023C258.538 13.8336 258.679 13.5533 258.679 13.182V13.1139C258.679 12.3942 258.451 11.8373 257.997 11.4434C257.55 11.0495 256.913 10.8525 256.088 10.8525C255.216 10.8525 254.523 11.0457 254.008 11.432C253.493 11.8108 253.152 12.2881 252.985 12.8639L248.508 12.5002C248.735 11.4396 249.182 10.5229 249.849 9.75022C250.516 8.96992 251.376 8.37143 252.429 7.95477C253.489 7.53053 254.717 7.31841 256.11 7.31841C257.08 7.31841 258.008 7.43204 258.895 7.65931C259.788 7.88659 260.58 8.23886 261.27 8.71613C261.967 9.1934 262.516 9.80704 262.917 10.557C263.319 11.2995 263.52 12.1896 263.52 13.2275V25.0002H258.929V22.5798H258.792C258.512 23.1252 258.137 23.6063 257.667 24.023C257.198 24.432 256.633 24.754 255.974 24.9889C255.315 25.2161 254.554 25.3298 253.69 25.3298ZM255.076 21.9889C255.788 21.9889 256.417 21.8487 256.963 21.5684C257.508 21.2805 257.936 20.8942 258.247 20.4093C258.557 19.9245 258.713 19.3752 258.713 18.7616V16.9093C258.561 17.0078 258.353 17.0987 258.088 17.182C257.83 17.2578 257.538 17.3298 257.213 17.3979C256.887 17.4586 256.561 17.5154 256.235 17.5684C255.91 17.6139 255.614 17.6555 255.349 17.6934C254.781 17.7767 254.285 17.9093 253.86 18.0911C253.436 18.273 253.107 18.5192 252.872 18.8298C252.637 19.1328 252.52 19.5116 252.52 19.9661C252.52 20.6252 252.758 21.129 253.235 21.4775C253.72 21.8184 254.334 21.9889 255.076 21.9889Z" fill="#141414"/>
</svg>
