<svg width="24" height="24" viewBox="0 0 24 24" fill="none" xmlns="http://www.w3.org/2000/svg">
<path d="M2.72727 0C1.2358 0 0 1.2358 0 2.72727V21.2727C0 22.7642 1.2358 24 2.72727 24H21.2727C22.7642 24 24 22.7642 24 21.2727V2.72727C24 1.2358 22.7642 0 21.2727 0H2.72727ZM2.72727 2.18182H21.2727C21.5838 2.18182 21.8182 2.41619 21.8182 2.72727V21.2727C21.8182 21.5838 21.5838 21.8182 21.2727 21.8182H2.72727C2.41619 21.8182 2.18182 21.5838 2.18182 21.2727V2.72727C2.18182 2.41619 2.41619 2.18182 2.72727 2.18182ZM5.93182 4.05682C4.89631 4.05682 4.05682 4.89631 4.05682 5.93182C4.05682 6.96733 4.89631 7.80682 5.93182 7.80682C6.96733 7.80682 7.80682 6.96733 7.80682 5.93182C7.80682 4.89631 6.96733 4.05682 5.93182 4.05682ZM15.7841 9.03409C14.2202 9.03409 13.1804 9.89062 12.75 10.7045H12.6818V9.27273H9.61364V19.6364H12.8182V14.5227C12.8182 13.1719 13.0866 11.8636 14.7614 11.8636C16.4105 11.8636 16.4318 13.3892 16.4318 14.5909V19.6364H19.6364V13.9432C19.6364 11.1563 19.044 9.03409 15.7841 9.03409ZM4.36364 9.27273V19.6364H7.60227V9.27273H4.36364Z" fill="white"/>
</svg>
